<svg width="17" height="16" viewBox="0 0 17 16" fill="none" xmlns="http://www.w3.org/2000/svg">
<path d="M8.00049 9.72378L8.00049 1.99992C8.00049 1.63173 8.29897 1.33325 8.66716 1.33325C9.03535 1.33325 9.33382 1.63173 9.33382 1.99992L9.33382 9.72378L10.8624 8.19518C11.1228 7.93483 11.5449 7.93483 11.8052 8.19518C12.0656 8.45553 12.0656 8.87764 11.8052 9.13799L9.13856 11.8047C8.87821 12.065 8.4561 12.065 8.19575 11.8047L5.52908 9.13799C5.26873 8.87764 5.26873 8.45553 5.52908 8.19518C5.78943 7.93483 6.21154 7.93483 6.47189 8.19518L8.00049 9.72378Z" fill="#3E3B46"/>
<path d="M3.33382 11.3333L3.33382 11.9999C3.33382 12.7363 3.93078 13.3333 4.66716 13.3333H12.6672C13.4035 13.3333 14.0005 12.7363 14.0005 11.9999V11.3333C14.0005 10.9651 14.299 10.6666 14.6672 10.6666C15.0353 10.6666 15.3338 10.9651 15.3338 11.3333V11.9999C15.3338 13.4727 14.1399 14.6666 12.6672 14.6666H4.66716C3.1944 14.6666 2.00049 13.4727 2.00049 11.9999V11.3333C2.00049 10.9651 2.29897 10.6666 2.66716 10.6666C3.03534 10.6666 3.33382 10.9651 3.33382 11.3333Z" fill="#3E3B46"/>
</svg>
