<svg width="16" height="16" viewBox="0 0 16 16" fill="none" xmlns="http://www.w3.org/2000/svg">
<g clip-path="url(#clip0_4886_19450)">
<path d="M6.00033 7.33341C6.00033 6.96522 5.70185 6.66675 5.33366 6.66675C4.96547 6.66675 4.66699 6.96522 4.66699 7.33341C4.66699 7.7016 4.36852 8.00008 4.00033 8.00008C3.63214 8.00008 3.33366 7.7016 3.33366 7.33341C3.33366 6.22884 4.22909 5.33341 5.33366 5.33341C6.43823 5.33341 7.33366 6.22884 7.33366 7.33341C7.33366 7.7016 7.03518 8.00008 6.66699 8.00008C6.2988 8.00008 6.00033 7.7016 6.00033 7.33341Z" fill="#3E3B46"/>
<path d="M10.667 6.66675C11.0352 6.66675 11.3337 6.96522 11.3337 7.33341C11.3337 7.7016 11.6321 8.00008 12.0003 8.00008C12.3685 8.00008 12.667 7.7016 12.667 7.33341C12.667 6.22884 11.7716 5.33341 10.667 5.33341C9.56242 5.33341 8.66699 6.22884 8.66699 7.33341C8.66699 7.7016 8.96547 8.00008 9.33366 8.00008C9.70185 8.00008 10.0003 7.7016 10.0003 7.33341C10.0003 6.96522 10.2988 6.66675 10.667 6.66675Z" fill="#3E3B46"/>
<path d="M10.8288 10.8285C11.0891 10.5682 11.0891 10.146 10.8288 9.88569C10.5684 9.62534 10.1463 9.62534 9.88595 9.88569C8.84455 10.9271 7.15611 10.9271 6.11471 9.88569C5.85436 9.62534 5.43226 9.62534 5.17191 9.88569C4.91156 10.146 4.91156 10.5682 5.17191 10.8285C6.734 12.3906 9.26666 12.3906 10.8288 10.8285Z" fill="#3E3B46"/>
<path fill-rule="evenodd" clip-rule="evenodd" d="M8.00033 0.666748C3.95024 0.666748 0.666992 3.94999 0.666992 8.00008C0.666992 12.0502 3.95024 15.3334 8.00033 15.3334C12.0504 15.3334 15.3337 12.0502 15.3337 8.00008C15.3337 3.94999 12.0504 0.666748 8.00033 0.666748ZM2.00033 8.00008C2.00033 4.68637 4.68662 2.00008 8.00033 2.00008C11.314 2.00008 14.0003 4.68637 14.0003 8.00008C14.0003 11.3138 11.314 14.0001 8.00033 14.0001C4.68662 14.0001 2.00033 11.3138 2.00033 8.00008Z" fill="#3E3B46"/>
</g>
<defs>
<clipPath id="clip0_4886_19450">
<rect width="16" height="16" fill="white"/>
</clipPath>
</defs>
</svg>
