<svg width="17" height="16" viewBox="0 0 17 16" fill="none" xmlns="http://www.w3.org/2000/svg">
<path fill-rule="evenodd" clip-rule="evenodd" d="M8.50065 1.33325C7.02789 1.33325 5.83398 2.52716 5.83398 3.99992V7.99992C5.83398 9.47268 7.02789 10.6666 8.50065 10.6666H12.5007C13.9734 10.6666 15.1673 9.47268 15.1673 7.99992V3.99992C15.1673 2.52716 13.9734 1.33325 12.5007 1.33325H8.50065ZM7.16732 3.99992C7.16732 3.26354 7.76427 2.66659 8.50065 2.66659H12.5007C13.237 2.66659 13.834 3.26354 13.834 3.99992V7.99992C13.834 8.7363 13.237 9.33325 12.5007 9.33325H8.50065C7.76427 9.33325 7.16732 8.7363 7.16732 7.99992V3.99992Z" fill="#3E3B46"/>
<path d="M1.83398 11.9999C1.83398 13.4727 3.02789 14.6666 4.50065 14.6666H8.50065C9.97341 14.6666 11.1673 13.4727 11.1673 11.9999C11.1673 11.6317 10.8688 11.3333 10.5007 11.3333C10.1325 11.3333 9.83398 11.6317 9.83398 11.9999C9.83398 12.7363 9.23703 13.3333 8.50065 13.3333H4.50065C3.76427 13.3333 3.16732 12.7363 3.16732 11.9999L3.16732 7.99992C3.16732 7.26354 3.76427 6.66659 4.50065 6.66659C4.86884 6.66659 5.16732 6.36811 5.16732 5.99992C5.16732 5.63173 4.86884 5.33325 4.50065 5.33325C3.02789 5.33325 1.83398 6.52716 1.83398 7.99992V11.9999Z" fill="#3E3B46"/>
</svg>
