<svg width="17" height="16" viewBox="0 0 17 16" fill="none" xmlns="http://www.w3.org/2000/svg">
<path fill-rule="evenodd" clip-rule="evenodd" d="M8.50016 1.33325C7.0274 1.33325 5.8335 2.52716 5.8335 3.99992V7.99992C5.8335 9.47268 7.0274 10.6666 8.50016 10.6666H12.5002C13.9729 10.6666 15.1668 9.47268 15.1668 7.99992V3.99992C15.1668 2.52716 13.9729 1.33325 12.5002 1.33325H8.50016ZM7.16683 3.99992C7.16683 3.26354 7.76378 2.66659 8.50016 2.66659H12.5002C13.2365 2.66659 13.8335 3.26354 13.8335 3.99992V7.99992C13.8335 8.7363 13.2365 9.33325 12.5002 9.33325H8.50016C7.76378 9.33325 7.16683 8.7363 7.16683 7.99992V3.99992Z" fill="#3E3B46"/>
<path d="M1.8335 11.9999C1.8335 13.4727 3.0274 14.6666 4.50016 14.6666H8.50016C9.97292 14.6666 11.1668 13.4727 11.1668 11.9999C11.1668 11.6317 10.8684 11.3333 10.5002 11.3333C10.132 11.3333 9.8335 11.6317 9.8335 11.9999C9.8335 12.7363 9.23654 13.3333 8.50016 13.3333H4.50016C3.76378 13.3333 3.16683 12.7363 3.16683 11.9999L3.16683 7.99992C3.16683 7.26354 3.76378 6.66659 4.50016 6.66659C4.86835 6.66659 5.16683 6.36811 5.16683 5.99992C5.16683 5.63173 4.86835 5.33325 4.50016 5.33325C3.0274 5.33325 1.8335 6.52716 1.8335 7.99992V11.9999Z" fill="#3E3B46"/>
</svg>
