<svg width="17" height="16" viewBox="0 0 17 16" fill="none" xmlns="http://www.w3.org/2000/svg">
<path d="M7.66699 9.72378L7.66699 1.99992C7.66699 1.63173 7.96547 1.33325 8.33366 1.33325C8.70185 1.33325 9.00033 1.63173 9.00033 1.99992L9.00033 9.72378L10.5289 8.19518C10.7893 7.93483 11.2114 7.93483 11.4717 8.19518C11.7321 8.45553 11.7321 8.87764 11.4717 9.13799L8.80506 11.8047C8.54472 12.065 8.12261 12.065 7.86226 11.8047L5.19559 9.13799C4.93524 8.87764 4.93524 8.45553 5.19559 8.19518C5.45594 7.93483 5.87805 7.93483 6.1384 8.19518L7.66699 9.72378Z" fill="#3E3B46"/>
<path d="M3.00033 11.3333L3.00033 11.9999C3.00033 12.7363 3.59728 13.3333 4.33366 13.3333H12.3337C13.07 13.3333 13.667 12.7363 13.667 11.9999V11.3333C13.667 10.9651 13.9655 10.6666 14.3337 10.6666C14.7018 10.6666 15.0003 10.9651 15.0003 11.3333V11.9999C15.0003 13.4727 13.8064 14.6666 12.3337 14.6666H4.33366C2.8609 14.6666 1.66699 13.4727 1.66699 11.9999V11.3333C1.66699 10.9651 1.96547 10.6666 2.33366 10.6666C2.70185 10.6666 3.00033 10.9651 3.00033 11.3333Z" fill="#3E3B46"/>
</svg>
