<svg width="29" height="24" viewBox="0 0 29 24" fill="none" xmlns="http://www.w3.org/2000/svg">
<g clip-path="url(#clip0_1107_15825)">
<path d="M26.4273 0H2.56719C1.42422 0 0.5 0.773438 0.5 1.72969V22.2656C0.5 23.2219 1.42422 24 2.56719 24H26.4273C27.5703 24 28.5 23.2219 28.5 22.2703V1.72969C28.5 0.773438 27.5703 0 26.4273 0ZM8.80703 20.4516H4.65078V8.99531H8.80703V20.4516ZM6.72891 7.43438C5.39453 7.43438 4.31719 6.51094 4.31719 5.37187C4.31719 4.23281 5.39453 3.30937 6.72891 3.30937C8.05781 3.30937 9.13516 4.23281 9.13516 5.37187C9.13516 6.50625 8.05781 7.43438 6.72891 7.43438ZM24.3602 20.4516H20.2094V14.8828C20.2094 13.5563 20.182 11.8453 18.0492 11.8453C15.8891 11.8453 15.5609 13.2938 15.5609 14.7891V20.4516H11.4156V8.99531H15.3969V10.5609H15.4516C16.0039 9.66094 17.3602 8.70938 19.3781 8.70938C23.5836 8.70938 24.3602 11.0813 24.3602 14.1656V20.4516V20.4516Z" fill="black"/>
</g>
<defs>
<clipPath id="clip0_1107_15825">
<rect width="28" height="24" fill="white" transform="translate(0.5)"/>
</clipPath>
</defs>
</svg>
