<svg width="29" height="24" viewBox="0 0 29 24" fill="none" xmlns="http://www.w3.org/2000/svg">
<path fill-rule="evenodd" clip-rule="evenodd" d="M14.5 0C6.77115 0 0.5 5.37527 0.5 12C0.5 18.6248 6.77115 24 14.5 24C22.2137 24 28.5 18.6248 28.5 12C28.5 5.37527 22.2137 0 14.5 0ZM23.7473 5.53145C25.4176 7.27549 26.4198 9.50107 26.4501 11.9089C26.0553 11.8438 22.1073 11.154 18.1291 11.5835C18.038 11.4143 17.962 11.2321 17.8709 11.0499C17.628 10.5554 17.3547 10.0477 17.0813 9.56617C21.4848 8.0304 23.4891 5.81779 23.7473 5.53145ZM14.5 1.77007C17.5369 1.77007 20.3156 2.74621 22.4263 4.34708C22.2136 4.60738 20.4067 6.67679 16.1551 8.04337C14.1963 4.95878 12.025 2.43384 11.6909 2.04338C12.5867 1.86117 13.5282 1.77007 14.5 1.77007ZM9.41327 2.73319C9.73212 3.09761 11.8579 5.63558 13.8471 8.65508C8.25922 9.9306 3.3243 9.90458 2.79284 9.90458C3.56724 6.72885 6.07266 4.08676 9.41327 2.73319ZM2.53471 12.0131C2.53471 11.9089 2.53471 11.8048 2.53471 11.7007C3.05098 11.7136 8.85141 11.7787 14.8189 10.243C15.1682 10.8156 15.487 11.4013 15.7907 11.987C15.6388 12.026 15.4718 12.0651 15.32 12.1041C9.1551 13.8091 5.87527 18.4685 5.60195 18.859C3.7039 17.0499 2.53471 14.6421 2.53471 12.0131ZM14.5 22.256C11.7364 22.256 9.18547 21.449 7.16594 20.0954C7.37852 19.718 9.80799 15.7094 16.5499 13.692C16.5802 13.679 16.5955 13.679 16.6258 13.666C18.3112 17.4013 18.9946 20.5379 19.1768 21.436C17.7343 21.9696 16.1551 22.256 14.5 22.256ZM21.1659 20.4989C21.0445 19.8742 20.4067 16.8807 18.8427 13.1974C22.5933 12.6898 25.8731 13.5228 26.2831 13.6399C25.7669 16.4902 23.8536 18.9501 21.1659 20.4989Z" fill="black"/>
</svg>
