<svg width="160" height="26" viewBox="0 0 160 26" fill="none" xmlns="http://www.w3.org/2000/svg">
<g clip-path="url(#clip0_1_243)">
<path d="M12.3833 0.816895C5.54419 0.816895 0 6.36109 0 13.2002C0 20.0393 5.54419 25.5835 12.3833 25.5835C19.2224 25.5835 24.7666 20.0393 24.7666 13.2002C24.7666 6.36109 19.2224 0.816895 12.3833 0.816895ZM12.3833 20.0497C8.59615 20.0497 5.52605 16.9796 5.52605 13.1925C5.52605 9.40529 8.59614 6.3352 12.3833 6.3352C16.1705 6.3352 19.2406 9.40529 19.2406 13.1925C19.2448 16.9796 16.1782 20.0532 12.391 20.0574C12.3885 20.0574 12.3859 20.0574 12.3833 20.0574L12.3833 20.0497Z" fill="#020202"/>
<path d="M12.3833 7.75928C9.39122 7.75928 6.96564 10.1849 6.96564 13.177C6.96564 16.1691 9.39122 18.5947 12.3833 18.5947C15.3754 18.5947 17.801 16.1691 17.801 13.177C17.801 10.1849 15.3754 7.75928 12.3833 7.75928ZM12.3833 17.782C9.84859 17.782 7.79377 15.7272 7.79377 13.1925C7.79377 10.6577 9.84859 8.60289 12.3833 8.60289C14.9181 8.60289 16.9729 10.6577 16.9729 13.1925C16.9729 15.7272 14.9181 17.782 12.3833 17.782Z" fill="#020202"/>
<path d="M12.3678 9.71743C10.4359 9.73456 8.88358 11.3146 8.90071 13.2466C8.91785 15.1786 10.4979 16.7309 12.4299 16.7137C14.3588 16.6966 15.9098 15.1214 15.8971 13.1925C15.8843 11.2605 14.3078 9.70462 12.3758 9.71736C12.3731 9.71738 12.3705 9.7174 12.3678 9.71743ZM12.3678 15.0268C11.3633 15.0268 10.549 14.2125 10.549 13.208C10.549 12.2035 11.3633 11.3892 12.3678 11.3892C13.3723 11.3892 14.1866 12.2035 14.1866 13.208C14.1782 14.2004 13.3757 15.0029 12.3833 15.0113L12.3678 15.0268Z" fill="#020202"/>
<path d="M44.2084 12.8133H52.9386V13.5098C52.9625 14.9357 52.7747 16.3572 52.3813 17.7279C51.9904 18.902 51.3606 19.9824 50.5316 20.9011C48.6584 23.0697 45.9122 24.2852 43.0474 24.2137C40.1782 24.2516 37.4233 23.0902 35.4472 21.0095C33.3779 18.9711 32.2339 16.1741 32.2817 13.2699C32.239 10.3491 33.404 7.54028 35.5014 5.50713C38.7904 2.25424 43.7504 1.37877 47.9543 3.3091C49.506 4.13644 50.879 5.26217 51.9944 6.62164L49.7189 8.79645C47.9904 6.46943 45.8801 5.30591 43.388 5.30591C41.2702 5.25842 39.2293 6.10057 37.7613 7.62778C36.2507 9.13212 35.4275 11.193 35.4859 13.3241C35.4255 15.5433 36.3525 17.675 38.0167 19.1443C39.3959 20.4769 41.2304 21.2351 43.1481 21.2649C44.7031 21.2696 46.2062 20.7053 47.3739 19.6783C48.5674 18.7249 49.324 17.3289 49.4713 15.8085H44.2084L44.2084 12.8133Z" fill="#020202"/>
<path d="M72.5197 5.70077H64.0449V10.7779H72.2721V13.7731H64.0449V20.8394H72.5197V23.8346H60.8562V2.70557H72.5197L72.5197 5.70077Z" fill="#020202"/>
<path d="M92.7587 5.70077H84.2839V10.7779H92.5188V13.7731H84.2839V20.8394H92.7587V23.8346H81.0952V2.70557H92.7587V5.70077Z" fill="#020202"/>
<path d="M101.234 23.8342V1.26562L116.643 17.3871V2.68197H119.832V25.1267L104.422 9.03615V23.8342H101.234Z" fill="#020202"/>
<path d="M139.66 5.70077H131.217V10.7779H139.444V13.7731H131.217V20.8394H139.691V23.8346H127.997V2.70557H139.66L139.66 5.70077Z" fill="#020202"/>
<path d="M159.992 5.70077H151.525V10.7779H159.752V13.7731H151.525V20.8394H160V23.8346H148.336V2.70557H160L159.992 5.70077Z" fill="#020202"/>
</g>
<defs>
<clipPath id="clip0_1_243">
<rect width="160" height="24.8" fill="white" transform="translate(0 0.800293)"/>
</clipPath>
</defs>
</svg>
