<svg width="17" height="16" viewBox="0 0 17 16" fill="none" xmlns="http://www.w3.org/2000/svg">
<path fill-rule="evenodd" clip-rule="evenodd" d="M8.33366 1.33325C6.8609 1.33325 5.66699 2.52716 5.66699 3.99992V7.99992C5.66699 9.47268 6.8609 10.6666 8.33366 10.6666H12.3337C13.8064 10.6666 15.0003 9.47268 15.0003 7.99992V3.99992C15.0003 2.52716 13.8064 1.33325 12.3337 1.33325H8.33366ZM7.00033 3.99992C7.00033 3.26354 7.59728 2.66659 8.33366 2.66659H12.3337C13.07 2.66659 13.667 3.26354 13.667 3.99992V7.99992C13.667 8.7363 13.07 9.33325 12.3337 9.33325H8.33366C7.59728 9.33325 7.00033 8.7363 7.00033 7.99992V3.99992Z" fill="#3E3B46"/>
<path d="M1.66699 11.9999C1.66699 13.4727 2.8609 14.6666 4.33366 14.6666H8.33366C9.80642 14.6666 11.0003 13.4727 11.0003 11.9999C11.0003 11.6317 10.7018 11.3333 10.3337 11.3333C9.96547 11.3333 9.66699 11.6317 9.66699 11.9999C9.66699 12.7363 9.07004 13.3333 8.33366 13.3333H4.33366C3.59728 13.3333 3.00033 12.7363 3.00033 11.9999L3.00033 7.99992C3.00033 7.26354 3.59728 6.66659 4.33366 6.66659C4.70185 6.66659 5.00033 6.36811 5.00033 5.99992C5.00033 5.63173 4.70185 5.33325 4.33366 5.33325C2.8609 5.33325 1.66699 6.52716 1.66699 7.99992V11.9999Z" fill="#3E3B46"/>
</svg>
