<svg width="17" height="16" viewBox="0 0 17 16" fill="none" xmlns="http://www.w3.org/2000/svg">
<path d="M7.83301 9.72378L7.83301 1.99992C7.83301 1.63173 8.13148 1.33325 8.49967 1.33325C8.86786 1.33325 9.16634 1.63173 9.16634 1.99992L9.16634 9.72378L10.6949 8.19518C10.9553 7.93483 11.3774 7.93483 11.6377 8.19518C11.8981 8.45553 11.8981 8.87764 11.6377 9.13799L8.97108 11.8047C8.71073 12.065 8.28862 12.065 8.02827 11.8047L5.3616 9.13799C5.10125 8.87764 5.10125 8.45553 5.3616 8.19518C5.62195 7.93483 6.04406 7.93483 6.30441 8.19518L7.83301 9.72378Z" fill="#3E3B46"/>
<path d="M3.16634 11.3333L3.16634 11.9999C3.16634 12.7363 3.7633 13.3333 4.49968 13.3333H12.4997C13.2361 13.3333 13.833 12.7363 13.833 11.9999V11.3333C13.833 10.9651 14.1315 10.6666 14.4997 10.6666C14.8679 10.6666 15.1663 10.9651 15.1663 11.3333V11.9999C15.1663 13.4727 13.9724 14.6666 12.4997 14.6666H4.49968C3.02692 14.6666 1.83301 13.4727 1.83301 11.9999V11.3333C1.83301 10.9651 2.13148 10.6666 2.49967 10.6666C2.86786 10.6666 3.16634 10.9651 3.16634 11.3333Z" fill="#3E3B46"/>
</svg>
