<svg width="17" height="16" viewBox="0 0 17 16" fill="none" xmlns="http://www.w3.org/2000/svg">
<path d="M7.8335 9.72378L7.8335 1.99992C7.8335 1.63173 8.13197 1.33325 8.50016 1.33325C8.86835 1.33325 9.16683 1.63173 9.16683 1.99992L9.16683 9.72378L10.6954 8.19518C10.9558 7.93483 11.3779 7.93483 11.6382 8.19518C11.8986 8.45553 11.8986 8.87764 11.6382 9.13799L8.97157 11.8047C8.71122 12.065 8.28911 12.065 8.02876 11.8047L5.36209 9.13799C5.10174 8.87764 5.10174 8.45553 5.36209 8.19518C5.62244 7.93483 6.04455 7.93483 6.3049 8.19518L7.8335 9.72378Z" fill="#3E3B46"/>
<path d="M3.16683 11.3333L3.16683 11.9999C3.16683 12.7363 3.76378 13.3333 4.50016 13.3333H12.5002C13.2365 13.3333 13.8335 12.7363 13.8335 11.9999V11.3333C13.8335 10.9651 14.132 10.6666 14.5002 10.6666C14.8684 10.6666 15.1668 10.9651 15.1668 11.3333V11.9999C15.1668 13.4727 13.9729 14.6666 12.5002 14.6666H4.50016C3.0274 14.6666 1.8335 13.4727 1.8335 11.9999V11.3333C1.8335 10.9651 2.13197 10.6666 2.50016 10.6666C2.86835 10.6666 3.16683 10.9651 3.16683 11.3333Z" fill="#3E3B46"/>
</svg>
