<svg width="16" height="16" viewBox="0 0 16 16" fill="none" xmlns="http://www.w3.org/2000/svg">
<path d="M7.33301 9.72378L7.33301 1.99992C7.33301 1.63173 7.63148 1.33325 7.99967 1.33325C8.36786 1.33325 8.66634 1.63173 8.66634 1.99992L8.66634 9.72378L10.1949 8.19518C10.4553 7.93483 10.8774 7.93483 11.1377 8.19518C11.3981 8.45553 11.3981 8.87764 11.1377 9.13799L8.47108 11.8047C8.21073 12.065 7.78862 12.065 7.52827 11.8047L4.8616 9.13799C4.60125 8.87764 4.60125 8.45553 4.8616 8.19518C5.12195 7.93483 5.54406 7.93483 5.80441 8.19518L7.33301 9.72378Z" fill="#3E3B46"/>
<path d="M2.66634 11.3333L2.66634 11.9999C2.66634 12.7363 3.2633 13.3333 3.99968 13.3333H11.9997C12.7361 13.3333 13.333 12.7363 13.333 11.9999V11.3333C13.333 10.9651 13.6315 10.6666 13.9997 10.6666C14.3679 10.6666 14.6663 10.9651 14.6663 11.3333V11.9999C14.6663 13.4727 13.4724 14.6666 11.9997 14.6666H3.99968C2.52692 14.6666 1.33301 13.4727 1.33301 11.9999V11.3333C1.33301 10.9651 1.63148 10.6666 1.99967 10.6666C2.36786 10.6666 2.66634 10.9651 2.66634 11.3333Z" fill="#3E3B46"/>
</svg>
