<svg width="17" height="16" viewBox="0 0 17 16" fill="none" xmlns="http://www.w3.org/2000/svg">
<path d="M7.83399 9.72378L7.83398 1.99992C7.83398 1.63173 8.13246 1.33325 8.50065 1.33325C8.86884 1.33325 9.16732 1.63173 9.16732 1.99992L9.16732 9.72378L10.6959 8.19518C10.9563 7.93483 11.3784 7.93483 11.6387 8.19518C11.8991 8.45553 11.8991 8.87764 11.6387 9.13799L8.97206 11.8047C8.71171 12.065 8.2896 12.065 8.02925 11.8047L5.36258 9.13799C5.10223 8.87764 5.10223 8.45553 5.36258 8.19518C5.62293 7.93483 6.04504 7.93483 6.30539 8.19518L7.83399 9.72378Z" fill="#3E3B46"/>
<path d="M3.16732 11.3333L3.16732 11.9999C3.16732 12.7363 3.76427 13.3333 4.50065 13.3333H12.5007C13.237 13.3333 13.834 12.7363 13.834 11.9999V11.3333C13.834 10.9651 14.1325 10.6666 14.5007 10.6666C14.8688 10.6666 15.1673 10.9651 15.1673 11.3333V11.9999C15.1673 13.4727 13.9734 14.6666 12.5007 14.6666H4.50065C3.02789 14.6666 1.83398 13.4727 1.83398 11.9999V11.3333C1.83398 10.9651 2.13246 10.6666 2.50065 10.6666C2.86884 10.6666 3.16732 10.9651 3.16732 11.3333Z" fill="#3E3B46"/>
</svg>
