<svg width="16" height="16" viewBox="0 0 16 16" fill="none" xmlns="http://www.w3.org/2000/svg">
<path fill-rule="evenodd" clip-rule="evenodd" d="M7.99967 1.33325C6.52692 1.33325 5.33301 2.52716 5.33301 3.99992V7.99992C5.33301 9.47268 6.52692 10.6666 7.99967 10.6666H11.9997C13.4724 10.6666 14.6663 9.47268 14.6663 7.99992V3.99992C14.6663 2.52716 13.4724 1.33325 11.9997 1.33325H7.99967ZM6.66634 3.99992C6.66634 3.26354 7.2633 2.66659 7.99967 2.66659H11.9997C12.7361 2.66659 13.333 3.26354 13.333 3.99992V7.99992C13.333 8.7363 12.7361 9.33325 11.9997 9.33325H7.99967C7.2633 9.33325 6.66634 8.7363 6.66634 7.99992V3.99992Z" fill="#3E3B46"/>
<path d="M1.33301 11.9999C1.33301 13.4727 2.52692 14.6666 3.99967 14.6666H7.99967C9.47243 14.6666 10.6663 13.4727 10.6663 11.9999C10.6663 11.6317 10.3679 11.3333 9.99967 11.3333C9.63148 11.3333 9.33301 11.6317 9.33301 11.9999C9.33301 12.7363 8.73605 13.3333 7.99967 13.3333H3.99967C3.2633 13.3333 2.66634 12.7363 2.66634 11.9999L2.66634 7.99992C2.66634 7.26354 3.26329 6.66659 3.99967 6.66659C4.36786 6.66659 4.66634 6.36811 4.66634 5.99992C4.66634 5.63173 4.36786 5.33325 3.99967 5.33325C2.52691 5.33325 1.33301 6.52716 1.33301 7.99992V11.9999Z" fill="#3E3B46"/>
</svg>
