<svg width="17" height="16" viewBox="0 0 17 16" fill="none" xmlns="http://www.w3.org/2000/svg">
<path fill-rule="evenodd" clip-rule="evenodd" d="M8.49967 1.33325C7.02692 1.33325 5.83301 2.52716 5.83301 3.99992V7.99992C5.83301 9.47268 7.02692 10.6666 8.49967 10.6666H12.4997C13.9724 10.6666 15.1663 9.47268 15.1663 7.99992V3.99992C15.1663 2.52716 13.9724 1.33325 12.4997 1.33325H8.49967ZM7.16634 3.99992C7.16634 3.26354 7.7633 2.66659 8.49967 2.66659H12.4997C13.2361 2.66659 13.833 3.26354 13.833 3.99992V7.99992C13.833 8.7363 13.2361 9.33325 12.4997 9.33325H8.49967C7.7633 9.33325 7.16634 8.7363 7.16634 7.99992V3.99992Z" fill="#3E3B46"/>
<path d="M1.83301 11.9999C1.83301 13.4727 3.02692 14.6666 4.49967 14.6666H8.49967C9.97243 14.6666 11.1663 13.4727 11.1663 11.9999C11.1663 11.6317 10.8679 11.3333 10.4997 11.3333C10.1315 11.3333 9.83301 11.6317 9.83301 11.9999C9.83301 12.7363 9.23605 13.3333 8.49967 13.3333H4.49967C3.7633 13.3333 3.16634 12.7363 3.16634 11.9999L3.16634 7.99992C3.16634 7.26354 3.76329 6.66659 4.49967 6.66659C4.86786 6.66659 5.16634 6.36811 5.16634 5.99992C5.16634 5.63173 4.86786 5.33325 4.49967 5.33325C3.02691 5.33325 1.83301 6.52716 1.83301 7.99992V11.9999Z" fill="#3E3B46"/>
</svg>
