<svg width="17" height="16" viewBox="0 0 17 16" fill="none" xmlns="http://www.w3.org/2000/svg">
<path fill-rule="evenodd" clip-rule="evenodd" d="M8.66715 1.33325C7.1944 1.33325 6.00049 2.52716 6.00049 3.99992V7.99992C6.00049 9.47268 7.1944 10.6666 8.66715 10.6666H12.6672C14.1399 10.6666 15.3338 9.47268 15.3338 7.99992V3.99992C15.3338 2.52716 14.1399 1.33325 12.6672 1.33325H8.66715ZM7.33382 3.99992C7.33382 3.26354 7.93078 2.66659 8.66715 2.66659H12.6672C13.4035 2.66659 14.0005 3.26354 14.0005 3.99992V7.99992C14.0005 8.7363 13.4035 9.33325 12.6672 9.33325H8.66715C7.93078 9.33325 7.33382 8.7363 7.33382 7.99992V3.99992Z" fill="#3E3B46"/>
<path d="M2.00049 11.9999C2.00049 13.4727 3.1944 14.6666 4.66716 14.6666H8.66715C10.1399 14.6666 11.3338 13.4727 11.3338 11.9999C11.3338 11.6317 11.0353 11.3333 10.6672 11.3333C10.299 11.3333 10.0005 11.6317 10.0005 11.9999C10.0005 12.7363 9.40353 13.3333 8.66715 13.3333H4.66716C3.93078 13.3333 3.33382 12.7363 3.33382 11.9999L3.33382 7.99992C3.33382 7.26354 3.93078 6.66659 4.66715 6.66659C5.03534 6.66659 5.33382 6.36811 5.33382 5.99992C5.33382 5.63173 5.03534 5.33325 4.66715 5.33325C3.1944 5.33325 2.00049 6.52716 2.00049 7.99992V11.9999Z" fill="#3E3B46"/>
</svg>
