<svg width="29" height="24" viewBox="0 0 29 24" fill="none" xmlns="http://www.w3.org/2000/svg">
<g clip-path="url(#clip0_1107_15821)">
<path d="M14.5 2.16094C18.2406 2.16094 18.6836 2.175 20.1547 2.23125C21.5219 2.28281 22.2602 2.47969 22.7523 2.64375C23.4031 2.85938 23.8734 3.12188 24.3602 3.53906C24.8523 3.96094 25.1531 4.35938 25.4047 4.91719C25.5961 5.33906 25.8258 5.97656 25.8859 7.14375C25.9516 8.40937 25.968 8.78906 25.968 11.9906C25.968 15.1969 25.9516 15.5766 25.8859 16.8375C25.8258 18.0094 25.5961 18.6422 25.4047 19.0641C25.1531 19.6219 24.8469 20.025 24.3602 20.4422C23.868 20.8641 23.4031 21.1219 22.7523 21.3375C22.2602 21.5016 21.5164 21.6984 20.1547 21.75C18.6781 21.8063 18.2352 21.8203 14.5 21.8203C10.7594 21.8203 10.3164 21.8063 8.84531 21.75C7.47813 21.6984 6.73984 21.5016 6.24766 21.3375C5.59688 21.1219 5.12656 20.8594 4.63984 20.4422C4.14766 20.0203 3.84687 19.6219 3.59531 19.0641C3.40391 18.6422 3.17422 18.0047 3.11406 16.8375C3.04844 15.5719 3.03203 15.1922 3.03203 11.9906C3.03203 8.78438 3.04844 8.40469 3.11406 7.14375C3.17422 5.97187 3.40391 5.33906 3.59531 4.91719C3.84687 4.35938 4.15312 3.95625 4.63984 3.53906C5.13203 3.11719 5.59688 2.85938 6.24766 2.64375C6.73984 2.47969 7.48359 2.28281 8.84531 2.23125C10.3164 2.175 10.7594 2.16094 14.5 2.16094ZM14.5 0C10.6992 0 10.2234 0.0140625 8.73047 0.0703125C7.24297 0.126563 6.22031 0.332812 5.33438 0.628125C4.41016 0.9375 3.62813 1.34531 2.85156 2.01562C2.06953 2.68125 1.59375 3.35156 1.23281 4.13906C0.888281 4.90313 0.647656 5.775 0.582031 7.05C0.516406 8.33437 0.5 8.74219 0.5 12C0.5 15.2578 0.516406 15.6656 0.582031 16.9453C0.647656 18.2203 0.888281 19.0969 1.23281 19.8563C1.59375 20.6484 2.06953 21.3188 2.85156 21.9844C3.62813 22.65 4.41016 23.0625 5.32891 23.3672C6.22031 23.6625 7.2375 23.8687 8.725 23.925C10.218 23.9812 10.6937 23.9953 14.4945 23.9953C18.2953 23.9953 18.7711 23.9812 20.2641 23.925C21.7516 23.8687 22.7742 23.6625 23.6602 23.3672C24.5789 23.0625 25.3609 22.65 26.1375 21.9844C26.9141 21.3188 27.3953 20.6484 27.7508 19.8609C28.0953 19.0969 28.3359 18.225 28.4016 16.95C28.4672 15.6703 28.4836 15.2625 28.4836 12.0047C28.4836 8.74688 28.4672 8.33906 28.4016 7.05938C28.3359 5.78438 28.0953 4.90781 27.7508 4.14844C27.4062 3.35156 26.9305 2.68125 26.1484 2.01562C25.3719 1.35 24.5898 0.9375 23.6711 0.632812C22.7797 0.3375 21.7625 0.13125 20.275 0.075C18.7766 0.0140625 18.3008 0 14.5 0Z" fill="black"/>
<path d="M14.5 5.83594C10.5297 5.83594 7.30859 8.59688 7.30859 12C7.30859 15.4031 10.5297 18.1641 14.5 18.1641C18.4703 18.1641 21.6914 15.4031 21.6914 12C21.6914 8.59688 18.4703 5.83594 14.5 5.83594ZM14.5 15.9984C11.9242 15.9984 9.83516 14.2078 9.83516 12C9.83516 9.79219 11.9242 8.00156 14.5 8.00156C17.0758 8.00156 19.1648 9.79219 19.1648 12C19.1648 14.2078 17.0758 15.9984 14.5 15.9984Z" fill="black"/>
<path d="M23.6547 5.59214C23.6547 6.38902 22.9 7.0312 21.9758 7.0312C21.0461 7.0312 20.2969 6.38433 20.2969 5.59214C20.2969 4.79526 21.0516 4.15308 21.9758 4.15308C22.9 4.15308 23.6547 4.79995 23.6547 5.59214Z" fill="black"/>
</g>
<defs>
<clipPath id="clip0_1107_15821">
<rect width="28" height="24" fill="white" transform="translate(0.5)"/>
</clipPath>
</defs>
</svg>
