<svg width="192" height="32" viewBox="0 0 192 32" fill="none" xmlns="http://www.w3.org/2000/svg">
<path fill-rule="evenodd" clip-rule="evenodd" d="M0 16C0 8.27742 6.27742 2 14 2C21.7226 2 28 8.27742 28 16C28 23.7226 21.7226 30 14 30C6.27742 30 0 23.7226 0 16ZM6.27742 15.9548C6.27742 20.2452 9.70968 23.7226 14 23.7226C18.2452 23.7677 21.7226 20.2903 21.7226 16C21.7226 11.7097 18.2452 8.1871 14 8.1871C9.75484 8.1871 6.27742 11.6645 6.27742 15.9548ZM14 9.85802C10.6129 9.85802 7.90323 12.6129 7.90323 16C7.90323 19.387 10.6129 22.0967 14 22.0967C17.3871 22.0967 20.0968 19.3419 20.0968 15.9548C20.0968 12.5677 17.3419 9.85802 14 9.85802ZM14 21.1935C11.1548 21.1935 8.80646 18.8903 8.80646 16C8.80646 13.1096 11.1097 10.8064 14 10.8064C16.8452 10.8064 19.1936 13.1096 19.1936 16C19.1936 18.8903 16.8452 21.1935 14 21.1935ZM10.0258 16.0451C10.0258 13.8774 11.7871 12.0709 13.9548 12.0709C16.1678 12.0258 17.929 13.7871 17.929 16C17.929 18.1677 16.1678 19.9742 14 19.9742C11.8323 19.9742 10.0258 18.2129 10.0258 16.0451ZM11.9226 16C11.9226 17.1742 12.8258 18.0774 13.9548 18.0774C15.0839 18.0322 15.9871 17.129 15.9871 16C15.9871 14.8258 15.0839 13.9225 13.9548 13.9225C12.8258 13.9225 11.9226 14.8258 11.9226 16ZM118.07 28.4548V2L136.398 20.9164V3.68562H140.206V30L121.878 11.1304V28.4548H118.07ZM50.0919 15.5318H60.5648V16.3278C60.6124 18.0134 60.3743 19.6522 59.8983 21.291C59.4223 22.6489 58.6606 23.9131 57.7085 24.99C55.4712 27.5184 52.2341 28.9699 48.8066 28.8763C45.3792 28.9231 42.0945 27.5653 39.7619 25.1305C37.2865 22.7425 35.9536 19.4649 36.0012 16.0469C35.9536 12.6288 37.3341 9.3512 39.8095 6.96324C43.713 3.1706 49.6159 2.1405 54.6143 4.38799C56.4708 5.37127 58.0894 6.68231 59.4223 8.27428L56.7089 10.8027C54.6619 8.08699 52.1389 6.72913 49.1875 6.72913C46.6645 6.68231 44.2367 7.66559 42.4753 9.44485C40.6664 11.2241 39.7143 13.6121 39.7619 16.1405C39.6667 18.7626 40.8092 21.2442 42.761 22.9766C44.3795 24.5218 46.5693 25.4114 48.8542 25.4582C50.7108 25.4582 52.4721 24.8027 53.9002 23.5853C55.3284 22.4616 56.2328 20.8228 56.3756 19.0435H50.0919V15.5318ZM73.7986 7.19725H83.8906V3.68555H69.9903V28.4548H83.8906V24.9431H73.7986V16.6554H83.605V13.1437H73.7986V7.19725ZM97.8861 7.19725H107.978V3.68555H94.0778V28.4548H107.978V24.9431H97.8861V16.6554H107.692V13.1437H97.8861V7.19725ZM163.817 7.19725H153.725V13.1437H163.532V16.6554H153.725V24.9431H163.817V28.4548H149.917V3.68555H163.817V7.19725ZM188 7.19725H177.908V13.1437H187.714V16.6554H177.908V24.9431H188V28.4548H174.1V3.68555H188V7.19725Z" fill="#3E3B46"/>
</svg>
