<svg width="1678" height="3118" viewBox="0 0 1678 3118" fill="none" xmlns="http://www.w3.org/2000/svg">
<path opacity="0.5" d="M889.532 2657.43C1069.38 2532.33 1199.81 2654.96 1188.21 2744.9C1163.18 2938.89 966.795 3012.24 777.016 2988.15C587.237 2964.06 489.355 2747.61 500.958 2657.67C512.561 2567.73 709.68 2782.53 889.532 2657.43Z" fill="#007CFF"/>
<path opacity="0.3" d="M1356.37 2670.57C1231.94 2833.45 1021.31 2881.64 946.162 2824.24C871.018 2766.83 1033.95 2682.2 1158.38 2519.32C1282.82 2356.44 1321.63 2176.98 1396.77 2234.39C1471.91 2291.8 1480.8 2507.69 1356.37 2670.57Z" fill="#E24EFF"/>
<path opacity="0.7" d="M381.293 149.612C513.018 -50.0956 658.365 -10.0738 709.135 45.2354C781.456 124.022 793.817 305.294 581.168 382.635C368.519 459.977 147.494 407.674 146.568 335.828C145.642 263.983 249.568 349.32 381.293 149.612Z" fill="#41F5EE"/>
<path d="M359.933 2734.39C354.364 2973.56 209.951 3016.83 137.56 2996.93C34.441 2968.57 -72.2927 2821.53 66.8265 2643.07C205.946 2464.62 421.007 2391.57 459.943 2451.95C498.88 2512.34 365.501 2495.22 359.933 2734.39Z" fill="#41F5EE"/>
<path opacity="0.7" d="M875.202 1673.73C916.901 1399.28 1086.83 1356.5 1165.86 1382.83C1278.43 1420.34 1377.54 1594.34 1193.59 1792.66C1009.65 1990.97 755.311 2064.57 720.157 1993.35C685.002 1922.12 833.502 1948.18 875.202 1673.73Z" fill="#41F5EE"/>
<path opacity="0.5" d="M247.14 2354.53C330.414 2071.58 511.505 2026.19 588.921 2052.7C699.197 2090.45 775.536 2268.86 557.148 2474.52C338.76 2680.17 66.3107 2757.95 40.6297 2684.88C14.9487 2611.8 163.866 2637.48 247.14 2354.53Z" fill="#FFE800"/>
<path opacity="0.5" d="M379.96 1357.69C598.764 1368.72 626.947 1545.51 562.757 1609.57C424.308 1747.74 224.076 1685.65 88.6676 1550.52C-46.7413 1415.39 8.2088 1184.27 72.3984 1120.22C136.588 1056.16 161.156 1346.66 379.96 1357.69Z" fill="#007CFF"/>
<ellipse opacity="0.5" cx="175.693" cy="1111.9" rx="156" ry="320" transform="rotate(-177.338 175.693 1111.9)" fill="#E24EFF"/>
<path opacity="0.5" d="M1597.89 824.348C1544.84 1022.34 1368.42 1147.09 1277.08 1122.61C1185.74 1098.14 1304.19 957.852 1357.24 759.864C1410.29 561.876 1377.86 381.161 1469.2 405.636C1560.54 430.11 1650.94 626.36 1597.89 824.348Z" fill="#E24EFF"/>
<path opacity="0.5" d="M1346.44 427.488C1178.68 463.547 974.568 346.772 895 245H1571.16C1571.16 787.504 1811.55 905.272 1571.16 868.97C1372.18 838.923 1535.2 386.915 1346.44 427.488Z" fill="#FFE800"/>
</svg>
