<svg width="29" height="24" viewBox="0 0 29 24" fill="none" xmlns="http://www.w3.org/2000/svg">
<path d="M28.3988 17.4577C28.2057 17.0042 27.8339 16.759 27.4121 16.5629C27.3334 16.5261 27.2619 16.4894 27.1976 16.4648C27.0689 16.4097 26.9402 16.3545 26.8115 16.2994C25.4959 15.6988 24.4663 14.9511 23.7584 14.0563C23.5582 13.805 23.3795 13.5354 23.2365 13.2596C23.1721 13.1125 23.1793 13.0267 23.2222 12.947C23.2651 12.8857 23.3223 12.8367 23.3938 12.7938C23.6226 12.6651 23.8514 12.5364 24.0087 12.4506C24.2875 12.2913 24.5163 12.1687 24.6593 12.0829C25.1956 11.7581 25.5745 11.4149 25.8105 11.0288C26.1465 10.4895 26.1894 9.85822 25.932 9.28826C25.5745 8.47929 24.6879 7.98287 23.6083 7.98287C23.3795 7.98287 23.1578 8.00126 22.929 8.04416C22.8718 8.05641 22.8075 8.06867 22.7503 8.08093C22.7574 7.52935 22.7431 6.94714 22.6859 6.37105C22.4857 4.35475 21.6563 3.30063 20.7983 2.46101C20.2477 1.93395 19.6042 1.48657 18.8821 1.13724C17.5808 0.499864 16.1007 0.175049 14.492 0.175049C12.8832 0.175049 11.4103 0.499864 10.109 1.13724C9.38687 1.48657 8.74337 1.93395 8.19282 2.46101C7.33481 3.30063 6.51256 4.36087 6.30521 6.37105C6.24801 6.94714 6.23371 7.52935 6.24086 8.08093C6.18366 8.06867 6.12646 8.05641 6.06211 8.04416C5.84046 8.00126 5.61166 7.98287 5.39001 7.98287C4.31036 7.98287 3.42375 8.48541 3.06625 9.28826C2.80885 9.85822 2.85175 10.4895 3.1878 11.0288C3.42375 11.4149 3.8027 11.7581 4.33896 12.0829C4.48196 12.1687 4.70361 12.2913 4.98961 12.4506C5.13976 12.5364 5.36141 12.659 5.58306 12.7816C5.66171 12.8245 5.72606 12.8796 5.77611 12.947C5.81901 13.0267 5.82616 13.1125 5.75466 13.2718C5.61166 13.5415 5.44006 13.805 5.23986 14.0502C4.54631 14.9204 3.5453 15.662 2.2726 16.2565C1.6005 16.5629 0.899796 16.7651 0.599496 17.4577C0.377845 17.9786 0.520845 18.5669 1.0857 19.0695C1.29305 19.2533 1.53615 19.4127 1.8007 19.5353C2.35125 19.7927 2.93755 19.9949 3.55245 20.1359C3.68115 20.1665 3.79555 20.2094 3.9028 20.2707C4.11016 20.4239 4.08156 20.6568 4.35326 21C4.48911 21.1777 4.66786 21.3309 4.86806 21.4535C5.44721 21.7967 6.09786 21.8151 6.78426 21.8396C7.40631 21.858 8.10702 21.8825 8.91497 22.1093C9.25102 22.2012 9.59422 22.3851 9.99462 22.5996C10.9599 23.1082 12.2755 23.8008 14.4848 23.8008C16.6942 23.8008 18.0169 23.1021 18.9893 22.5934C19.3897 22.3851 19.7329 22.2012 20.0547 22.1093C20.8555 21.8825 21.5634 21.858 22.1854 21.8396C22.8718 21.8151 23.5225 21.7967 24.1016 21.4535C24.3447 21.3064 24.5449 21.1226 24.6879 20.9019C24.8881 20.6139 24.881 20.4116 25.0669 20.2707C25.167 20.2094 25.2814 20.1665 25.3958 20.142C26.0107 20.001 26.6113 19.7988 27.169 19.5353C27.4478 19.4066 27.7052 19.235 27.9197 19.0327L27.9269 19.0266C28.4846 18.5363 28.6204 17.9602 28.3988 17.4577ZM26.4397 18.3586C25.2456 18.9224 24.4448 18.8611 23.8299 19.2043C23.3008 19.4924 23.6154 20.1175 23.2365 20.3442C22.7646 20.62 21.3775 20.3258 19.5899 20.8345C18.1099 21.2513 17.1732 22.4586 14.5134 22.4586C11.8536 22.4586 10.9384 21.2574 9.43692 20.8345C7.64942 20.3258 6.26231 20.6261 5.79041 20.3442C5.41146 20.1175 5.71891 19.4924 5.19696 19.2043C4.57491 18.8611 3.78125 18.9224 2.5872 18.3586C1.82215 17.997 2.2583 17.7764 2.50855 17.6722C6.84146 15.8765 7.53501 13.1002 7.56361 12.8919C7.59936 12.6406 7.64227 12.4445 7.32051 12.1932C7.01306 11.9481 5.64026 11.2188 5.25416 10.992C4.62496 10.612 4.34611 10.2382 4.55346 9.77242C4.69646 9.45373 5.04681 9.33116 5.41146 9.33116C5.52586 9.33116 5.64026 9.34342 5.75466 9.3618C6.44821 9.4905 7.12031 9.78468 7.50642 9.87048C7.55647 9.88273 7.59937 9.88886 7.64942 9.88886C7.85677 9.88886 7.92827 9.79693 7.91397 9.59469C7.87107 8.94506 7.76381 7.68257 7.88537 6.49975C8.04982 4.87568 8.65757 4.0667 9.38687 3.35579C9.73722 3.01259 11.3746 1.52947 14.5134 1.52947C17.6523 1.52947 19.2896 3.00646 19.64 3.34966C20.3693 4.06057 20.9771 4.86955 21.1415 6.49362C21.2631 7.67644 21.1558 8.93893 21.1058 9.58856C21.0915 9.80306 21.163 9.88273 21.3703 9.88273C21.4204 9.88273 21.4633 9.8766 21.5133 9.86435C21.8994 9.78467 22.5715 9.48438 23.2651 9.35567C23.3795 9.33116 23.4939 9.32503 23.6083 9.32503C23.9729 9.32503 24.3233 9.4476 24.4663 9.76629C24.6736 10.2321 24.3948 10.6059 23.7656 10.9859C23.3866 11.2126 22.0138 11.9419 21.6992 12.1871C21.3775 12.4384 21.4204 12.6345 21.4561 12.8857C21.4847 13.0941 22.1783 15.8704 26.5112 17.666C26.7686 17.7702 27.1976 17.997 26.4397 18.3586Z" fill="black"/>
</svg>
