<svg width="29" height="24" viewBox="0 0 29 24" fill="none" xmlns="http://www.w3.org/2000/svg">
<g clip-path="url(#clip0_1107_15824)">
<path d="M9.30852 21.75C19.872 21.75 25.6513 14.2467 25.6513 7.74186C25.6513 7.53092 25.6459 7.3153 25.6349 7.10436C26.7592 6.40746 27.7294 5.54425 28.5 4.5553C27.4529 4.9546 26.3412 5.21538 25.2029 5.32874C26.4015 4.71291 27.299 3.74547 27.7289 2.60577C26.6013 3.17856 25.3682 3.58261 24.0823 3.80061C23.216 3.01156 22.0705 2.48912 20.823 2.31405C19.5754 2.13899 18.2954 2.32105 17.1807 2.8321C16.066 3.34314 15.1788 4.15471 14.6562 5.14131C14.1335 6.12792 14.0047 7.23462 14.2895 8.2903C12.0062 8.19209 9.77259 7.6837 7.73331 6.7981C5.69403 5.91249 3.89464 4.66944 2.4518 3.14952C1.71847 4.23324 1.49407 5.51565 1.8242 6.73609C2.15434 7.95654 3.01424 9.02345 4.22914 9.71999C3.31707 9.69517 2.42497 9.48468 1.62656 9.10592V9.16686C1.62575 10.3041 2.08445 11.4066 2.92469 12.2868C3.76494 13.167 4.93488 13.7706 6.23562 13.995C5.39073 14.1931 4.50398 14.222 3.64398 14.0794C4.01103 15.0574 4.72517 15.9129 5.68673 16.5263C6.6483 17.1398 7.80931 17.4806 9.00773 17.5012C6.97316 18.8711 4.45987 19.6141 1.87266 19.6106C1.41383 19.61 0.955466 19.5859 0.5 19.5384C3.12833 20.9837 6.18579 21.7514 9.30852 21.75Z" fill="black"/>
</g>
<defs>
<clipPath id="clip0_1107_15824">
<rect width="28" height="24" fill="white" transform="translate(0.5)"/>
</clipPath>
</defs>
</svg>
