<svg width="188" height="28" viewBox="0 0 188 28" fill="none" xmlns="http://www.w3.org/2000/svg">
<path fill-rule="evenodd" clip-rule="evenodd" d="M0 14C0 6.27742 6.27742 0 14 0C21.7226 0 28 6.27742 28 14C28 21.7226 21.7226 28 14 28C6.27742 28 0 21.7226 0 14ZM6.27742 13.9548C6.27742 18.2452 9.70968 21.7226 14 21.7226C18.2452 21.7677 21.7226 18.2903 21.7226 14C21.7226 9.70968 18.2452 6.1871 14 6.1871C9.75484 6.1871 6.27742 9.66452 6.27742 13.9548ZM14 7.85802C10.6129 7.85802 7.90323 10.6129 7.90323 14C7.90323 17.387 10.6129 20.0967 14 20.0967C17.3871 20.0967 20.0968 17.3419 20.0968 13.9548C20.0968 10.5677 17.3419 7.85802 14 7.85802ZM14 19.1935C11.1548 19.1935 8.80646 16.8903 8.80646 14C8.80646 11.1096 11.1097 8.8064 14 8.8064C16.8452 8.8064 19.1936 11.1096 19.1936 14C19.1936 16.8903 16.8452 19.1935 14 19.1935ZM10.0258 14.0451C10.0258 11.8774 11.7871 10.0709 13.9548 10.0709C16.1678 10.0258 17.929 11.7871 17.929 14C17.929 16.1677 16.1678 17.9742 14 17.9742C11.8323 17.9742 10.0258 16.2129 10.0258 14.0451ZM11.9226 14C11.9226 15.1742 12.8258 16.0774 13.9548 16.0774C15.0839 16.0322 15.9871 15.129 15.9871 14C15.9871 12.8258 15.0839 11.9225 13.9548 11.9225C12.8258 11.9225 11.9226 12.8258 11.9226 14ZM118.07 26.4548V0L136.398 18.9164V1.68562H140.206V28L121.878 9.13043V26.4548H118.07ZM50.0919 13.5318H60.5648V14.3278C60.6124 16.0134 60.3743 17.6522 59.8983 19.291C59.4223 20.6489 58.6606 21.9131 57.7085 22.99C55.4712 25.5184 52.2341 26.9699 48.8066 26.8763C45.3792 26.9231 42.0945 25.5653 39.7619 23.1305C37.2865 20.7425 35.9536 17.4649 36.0012 14.0469C35.9536 10.6288 37.3341 7.3512 39.8095 4.96324C43.713 1.1706 49.6159 0.140501 54.6143 2.38799C56.4708 3.37127 58.0894 4.68231 59.4223 6.27428L56.7089 8.80271C54.6619 6.08699 52.1389 4.72913 49.1875 4.72913C46.6645 4.68231 44.2367 5.66559 42.4753 7.44485C40.6664 9.22411 39.7143 11.6121 39.7619 14.1405C39.6667 16.7626 40.8092 19.2442 42.761 20.9766C44.3795 22.5218 46.5693 23.4114 48.8542 23.4582C50.7108 23.4582 52.4721 22.8027 53.9002 21.5853C55.3284 20.4616 56.2328 18.8228 56.3756 17.0435H50.0919V13.5318ZM73.7986 5.19725H83.8906V1.68555H69.9903V26.4548H83.8906V22.9431H73.7986V14.6554H83.605V11.1437H73.7986V5.19725ZM97.8861 5.19725H107.978V1.68555H94.0778V26.4548H107.978V22.9431H97.8861V14.6554H107.692V11.1437H97.8861V5.19725ZM163.817 5.19725H153.725V11.1437H163.532V14.6554H153.725V22.9431H163.817V26.4548H149.917V1.68555H163.817V5.19725ZM188 5.19725H177.908V11.1437H187.714V14.6554H177.908V22.9431H188V26.4548H174.1V1.68555H188V5.19725Z" fill="#3E3B46"/>
</svg>
