<svg width="40" height="2" viewBox="0 0 40 2" fill="none" xmlns="http://www.w3.org/2000/svg">
<path d="M23.5839 0.868039C24.1331 0.868039 24.606 0.869689 25.0026 0.872987L38.6402 0.996273C39.0368 0.999571 39.2351 1.00369 39.2351 1.00864C39.2351 1.01359 39.0368 1.01785 38.6402 1.02142L25.0026 1.1443C24.606 1.14787 24.1331 1.14966 23.5839 1.14966C23.0348 1.14966 22.5771 1.14787 22.211 1.1443C21.8449 1.141 21.6619 1.13688 21.6619 1.13193C21.6619 1.12698 21.8449 1.12286 22.211 1.11956L32.5536 1.02637H2.12078C1.57161 1.02637 1.11398 1.02459 0.747866 1.02101C0.351248 1.01771 0.152939 1.01359 0.152939 1.00864C0.152939 1.00397 0.351248 0.999846 0.747866 0.996273C1.11398 0.992974 1.57161 0.991325 2.12078 0.991325H32.5536L22.211 0.898139C21.8449 0.89484 21.6619 0.890717 21.6619 0.885769C21.6619 0.880547 21.8449 0.876286 22.211 0.872987C22.5771 0.869689 23.0348 0.868039 23.5839 0.868039Z" fill="white"/>
</svg>
