<svg width="18" height="17" viewBox="0 0 18 17" fill="none" xmlns="http://www.w3.org/2000/svg">
<path d="M4.48365 5.42557V16.4858H0.800616V5.42557H4.48365ZM4.71803 2.01039C4.72547 2.55355 4.53759 3.00742 4.15441 3.372C3.77123 3.73658 3.26713 3.91888 2.64213 3.91888H2.61981C2.00969 3.91888 1.51862 3.73658 1.1466 3.372C0.774574 3.00742 0.588562 2.55355 0.588562 2.01039C0.588562 1.4598 0.780154 1.00407 1.16334 0.643206C1.54652 0.282342 2.0469 0.101911 2.66445 0.101911C3.28201 0.101911 3.77681 0.282342 4.14883 0.643206C4.52085 1.00407 4.71059 1.4598 4.71803 2.01039ZM17.7314 10.1466V16.4858H14.0595V10.5707C14.0595 9.78941 13.9089 9.17743 13.6075 8.73472C13.3062 8.29202 12.8356 8.07066 12.1957 8.07066C11.727 8.07066 11.3345 8.19901 11.0182 8.45571C10.702 8.7124 10.4658 9.03048 10.3095 9.40995C10.2277 9.63316 10.1868 9.9345 10.1868 10.314V16.4858H6.5149C6.52978 13.5171 6.53722 11.1101 6.53722 9.26486C6.53722 7.41962 6.5335 6.31843 6.52606 5.96129L6.5149 5.42557H10.1868V7.03271H10.1645C10.3133 6.79462 10.4658 6.58629 10.622 6.40771C10.7783 6.22914 10.9885 6.03569 11.2526 5.82736C11.5168 5.61902 11.8404 5.45719 12.2236 5.34187C12.6068 5.22654 13.0328 5.16888 13.5015 5.16888C14.7738 5.16888 15.7969 5.59112 16.5707 6.43562C17.3445 7.28011 17.7314 8.51709 17.7314 10.1466Z" fill="#777777"/>
</svg>
