<svg width="18" height="19" viewBox="0 0 18 19" fill="none" xmlns="http://www.w3.org/2000/svg">
<path d="M11.3401 11.4701C11.3401 11.4701 11.4796 11.3306 11.7586 11.0516C12.0376 10.7726 12.1771 10.2387 12.1771 9.45006C12.1771 8.66137 11.8981 7.988 11.3401 7.42997C10.782 6.87193 10.1087 6.59291 9.31996 6.59291C8.53127 6.59291 7.85791 6.87193 7.29987 7.42997C6.74184 7.988 6.46282 8.66137 6.46282 9.45006C6.46282 10.2387 6.74184 10.9121 7.29987 11.4701C7.85791 12.0282 8.53127 12.3072 9.31996 12.3072C10.1087 12.3072 10.782 12.0282 11.3401 11.4701ZM12.4338 6.33622C12.4338 6.33622 12.6477 6.55013 13.0755 6.97796C13.5034 7.40579 13.7173 8.22982 13.7173 9.45006C13.7173 10.6703 13.2895 11.7082 12.4338 12.5639C11.5781 13.4196 10.5402 13.8474 9.31996 13.8474C8.09973 13.8474 7.06178 13.4196 6.20612 12.5639C5.35047 11.7082 4.92264 10.6703 4.92264 9.45006C4.92264 8.22982 5.35047 7.19187 6.20612 6.33622C7.06178 5.48056 8.09973 5.05274 9.31996 5.05274C10.5402 5.05274 11.5781 5.48056 12.4338 6.33622ZM14.6213 4.14872C14.6213 4.14872 14.6715 4.19894 14.772 4.29939C14.8724 4.39983 14.9226 4.59143 14.9226 4.87416C14.9226 5.1569 14.8222 5.39872 14.6213 5.59961C14.4204 5.8005 14.1786 5.90095 13.8959 5.90095C13.6131 5.90095 13.3713 5.8005 13.1704 5.59961C12.9695 5.39872 12.8691 5.1569 12.8691 4.87416C12.8691 4.59143 12.9695 4.34961 13.1704 4.14872C13.3713 3.94782 13.6131 3.84738 13.8959 3.84738C14.1786 3.84738 14.4204 3.94782 14.6213 4.14872ZM10.1738 2.41323C10.1738 2.41323 10.0445 2.41416 9.78592 2.41602C9.52737 2.41788 9.37205 2.41881 9.31996 2.41881C9.26788 2.41881 8.98328 2.41695 8.46617 2.41323C7.94906 2.40951 7.55657 2.40951 7.28871 2.41323C7.02086 2.41695 6.66185 2.42811 6.2117 2.44671C5.76156 2.46531 5.37837 2.50251 5.06215 2.55832C4.74593 2.61412 4.47993 2.68294 4.26416 2.76479C3.89214 2.9136 3.56476 3.12937 3.28202 3.41211C2.99928 3.69485 2.78351 4.02223 2.6347 4.39425C2.55285 4.61003 2.48403 4.87602 2.42822 5.19224C2.37242 5.50846 2.33522 5.89165 2.31662 6.3418C2.29801 6.79195 2.28685 7.15095 2.28313 7.41881C2.27941 7.68666 2.27941 8.07915 2.28313 8.59626C2.28685 9.11337 2.28871 9.39797 2.28871 9.45006C2.28871 9.50214 2.28685 9.78674 2.28313 10.3039C2.27941 10.821 2.27941 11.2134 2.28313 11.4813C2.28685 11.7492 2.29801 12.1082 2.31662 12.5583C2.33522 13.0085 2.37242 13.3916 2.42822 13.7079C2.48403 14.0241 2.55285 14.2901 2.6347 14.5059C2.78351 14.8779 2.99928 15.2053 3.28202 15.488C3.56476 15.7707 3.89214 15.9865 4.26416 16.1353C4.47993 16.2172 4.74593 16.286 5.06215 16.3418C5.37837 16.3976 5.76156 16.4348 6.2117 16.4534C6.66185 16.472 7.02086 16.4832 7.28871 16.4869C7.55657 16.4906 7.94906 16.4906 8.46617 16.4869C8.98328 16.4832 9.26788 16.4813 9.31996 16.4813C9.37205 16.4813 9.65664 16.4832 10.1738 16.4869C10.6909 16.4906 11.0834 16.4906 11.3512 16.4869C11.6191 16.4832 11.9781 16.472 12.4282 16.4534C12.8784 16.4348 13.2616 16.3976 13.5778 16.3418C13.894 16.286 14.16 16.2172 14.3758 16.1353C14.7478 15.9865 15.0752 15.7707 15.3579 15.488C15.6406 15.2053 15.8564 14.8779 16.0052 14.5059C16.0871 14.2901 16.1559 14.0241 16.2117 13.7079C16.2675 13.3916 16.3047 13.0085 16.3233 12.5583C16.3419 12.1082 16.3531 11.7492 16.3568 11.4813C16.3605 11.2134 16.3605 10.821 16.3568 10.3039C16.3531 9.78674 16.3512 9.50214 16.3512 9.45006C16.3512 9.39797 16.3531 9.11337 16.3568 8.59626C16.3605 8.07915 16.3605 7.68666 16.3568 7.41881C16.3531 7.15095 16.3419 6.79195 16.3233 6.3418C16.3047 5.89165 16.2675 5.50846 16.2117 5.19224C16.1559 4.87602 16.0871 4.61003 16.0052 4.39425C15.8564 4.02223 15.6406 3.69485 15.3579 3.41211C15.0752 3.12937 14.7478 2.9136 14.3758 2.76479C14.16 2.68294 13.894 2.61412 13.5778 2.55832C13.2616 2.50251 12.8784 2.46531 12.4282 2.44671C11.9781 2.42811 11.6191 2.41695 11.3512 2.41323C11.0834 2.40951 10.6909 2.40951 10.1738 2.41323ZM17.8356 5.91211C17.8728 6.56687 17.8914 7.74619 17.8914 9.45006C17.8914 11.1539 17.8728 12.3332 17.8356 12.988C17.7612 14.5356 17.2999 15.7335 16.4517 16.5818C15.6034 17.43 14.4055 17.8913 12.8579 17.9657C12.2031 18.0029 11.0238 18.0215 9.31996 18.0215C7.61609 18.0215 6.43678 18.0029 5.78202 17.9657C4.2344 17.8913 3.03648 17.43 2.18827 16.5818C1.34005 15.7335 0.878743 14.5356 0.804339 12.988C0.767136 12.3332 0.748535 11.1539 0.748535 9.45006C0.748535 7.74619 0.767136 6.56687 0.804339 5.91211C0.878743 4.36449 1.34005 3.16657 2.18827 2.31836C3.03648 1.47015 4.2344 1.00884 5.78202 0.934432C6.43678 0.897229 7.61609 0.878628 9.31996 0.878628C11.0238 0.878628 12.2031 0.897229 12.8579 0.934432C14.4055 1.00884 15.6034 1.47015 16.4517 2.31836C17.2999 3.16657 17.7612 4.36449 17.8356 5.91211Z" fill="#777777"/>
</svg>
