<svg width="21" height="15" viewBox="0 0 21 15" fill="none" xmlns="http://www.w3.org/2000/svg">
<path d="M8.67582 10.0395L14.0776 7.2493L8.67582 4.42564V10.0395ZM10.7405 0.418945C11.9905 0.418945 13.1978 0.435686 14.3622 0.469168C15.5266 0.50265 16.3804 0.537993 16.9236 0.575195L17.7383 0.619838C17.7458 0.619838 17.809 0.625418 17.928 0.636579C18.0471 0.64774 18.1327 0.6589 18.1847 0.670061C18.2368 0.681222 18.3243 0.697963 18.447 0.720284C18.5698 0.742606 18.6758 0.772368 18.7651 0.80957C18.8544 0.846772 18.9586 0.895135 19.0776 0.954659C19.1967 1.01418 19.312 1.08673 19.4236 1.17229C19.5352 1.25786 19.6431 1.35644 19.7472 1.46805C19.7919 1.5127 19.8496 1.58152 19.9202 1.67453C19.9909 1.76753 20.0988 1.98517 20.2439 2.32743C20.389 2.66969 20.4876 3.04543 20.5397 3.45466C20.5992 3.93085 20.6457 4.43866 20.6792 4.9781C20.7126 5.51753 20.7331 5.93978 20.7405 6.24484V6.69127V8.20912C20.748 9.28799 20.681 10.3669 20.5397 11.4457C20.4876 11.855 20.3946 12.2251 20.2606 12.5562C20.1267 12.8873 20.0077 13.1161 19.9035 13.2426L19.7472 13.4323C19.6431 13.5439 19.5352 13.6425 19.4236 13.7281C19.312 13.8137 19.1967 13.8843 19.0776 13.9402C18.9586 13.996 18.8544 14.0425 18.7651 14.0797C18.6758 14.1169 18.5698 14.1466 18.447 14.1689C18.3243 14.1913 18.235 14.208 18.1792 14.2192C18.1234 14.2303 18.0378 14.2415 17.9225 14.2527C17.8071 14.2638 17.7458 14.2694 17.7383 14.2694C15.8708 14.4108 13.5382 14.4814 10.7405 14.4814C9.20037 14.4666 7.86294 14.4424 6.72827 14.4089C5.5936 14.3754 4.84769 14.3475 4.49055 14.3252L3.94367 14.2806L3.54189 14.2359C3.27403 14.1987 3.07128 14.1615 2.93363 14.1243C2.79598 14.0871 2.60625 14.009 2.36443 13.8899C2.12262 13.7709 1.91242 13.6184 1.73385 13.4323C1.68921 13.3877 1.63155 13.3189 1.56086 13.2259C1.49018 13.1329 1.38229 12.9152 1.2372 12.573C1.09211 12.2307 0.993524 11.855 0.941441 11.4457C0.881917 10.9695 0.835414 10.4617 0.801932 9.92229C0.76845 9.38286 0.747989 8.96061 0.740548 8.65555V8.20912V6.69127C0.733108 5.6124 0.800072 4.53353 0.941441 3.45466C0.993524 3.04543 1.08653 2.67527 1.22046 2.34417C1.35439 2.01307 1.47344 1.78427 1.5776 1.65778L1.73385 1.46805C1.83802 1.35644 1.94591 1.25786 2.05751 1.17229C2.16912 1.08673 2.28445 1.01418 2.40349 0.954659C2.52254 0.895135 2.62671 0.846772 2.71599 0.80957C2.80528 0.772368 2.91131 0.742606 3.03408 0.720284C3.15684 0.697963 3.24427 0.681222 3.29635 0.670061C3.34844 0.6589 3.434 0.64774 3.55305 0.636579C3.6721 0.625418 3.73534 0.619838 3.74278 0.619838C5.61034 0.485909 7.94293 0.418945 10.7405 0.418945Z" fill="#777777"/>
</svg>
