<svg width="29" height="2" viewBox="0 0 29 2" fill="none" xmlns="http://www.w3.org/2000/svg">
<path d="M17.2989 0.817915C17.7005 0.817915 18.0464 0.819691 18.3364 0.823242L28.3096 0.955966C28.5996 0.959517 28.7446 0.963956 28.7446 0.969283C28.7446 0.974609 28.5996 0.979196 28.3096 0.983043L18.3364 1.11532C18.0464 1.11917 17.7005 1.12109 17.2989 1.12109C16.8973 1.12109 16.5626 1.11917 16.2949 1.11532C16.0272 1.11177 15.8933 1.10733 15.8933 1.10201C15.8933 1.09668 16.0272 1.09224 16.2949 1.08869L23.8585 0.98837H1.60288C1.20127 0.98837 0.866603 0.986446 0.598867 0.982599C0.308819 0.979048 0.163795 0.974609 0.163795 0.969283C0.163795 0.964252 0.308819 0.959813 0.598867 0.955966C0.866603 0.952415 1.20127 0.950639 1.60288 0.950639H23.8585L16.2949 0.85032C16.0272 0.846768 15.8933 0.84233 15.8933 0.837003C15.8933 0.83138 16.0272 0.826793 16.2949 0.823242C16.5626 0.819691 16.8973 0.817915 17.2989 0.817915Z" fill="white"/>
</svg>
