<svg width="18" height="15" viewBox="0 0 18 15" fill="none" xmlns="http://www.w3.org/2000/svg">
<path d="M17.5936 2.00398C17.095 2.73314 16.4924 3.35442 15.7855 3.86782C15.793 3.97198 15.7967 4.12823 15.7967 4.33657C15.7967 5.30383 15.6553 6.26923 15.3726 7.23277C15.0898 8.19631 14.6602 9.12079 14.0835 10.0062C13.5069 10.8916 12.8205 11.6747 12.0244 12.3555C11.2282 13.0363 10.2684 13.5795 9.1449 13.985C8.02139 14.3905 6.81975 14.5933 5.53999 14.5933C3.52362 14.5933 1.67838 14.0538 0.00427246 12.975C0.264689 13.0047 0.554868 13.0196 0.874808 13.0196C2.54892 13.0196 4.04073 12.5062 5.35025 11.4794C4.569 11.4645 3.8696 11.2246 3.25204 10.7596C2.63448 10.2945 2.21037 9.70115 1.97972 8.97942C2.22525 9.01662 2.45219 9.03523 2.66052 9.03523C2.98046 9.03523 3.29668 8.9943 3.60918 8.91246C2.77585 8.74133 2.08575 8.32652 1.53887 7.66804C0.991996 7.00956 0.718558 6.24505 0.718558 5.37451V5.32987C1.22451 5.61261 1.76767 5.76514 2.34802 5.78746C1.85695 5.46008 1.46633 5.03225 1.17615 4.50398C0.885969 3.9757 0.74088 3.40279 0.74088 2.78523C0.74088 2.13046 0.90457 1.52406 1.23195 0.966029C2.13225 2.07466 3.22786 2.96194 4.51878 3.62786C5.8097 4.29378 7.19177 4.66395 8.66499 4.73835C8.60546 4.45561 8.5757 4.18032 8.5757 3.91246C8.5757 2.91543 8.92726 2.06536 9.63039 1.36223C10.3335 0.65911 11.1836 0.307547 12.1806 0.307547C13.2223 0.307547 14.1003 0.687011 14.8145 1.44594C15.6256 1.28969 16.3882 0.999511 17.1025 0.575404C16.8272 1.43106 16.2989 2.09326 15.5177 2.56201C16.2096 2.48761 16.9016 2.30159 17.5936 2.00398Z" fill="#777777"/>
</svg>
